[Size = 24] Rabbit with Belarus, the cover girl Natalie Akulich with her boyfriend BDRip 720p [/ size] 

[Img = right] http://i14.fastpic.ru/big/2011/0223/bb/0b0215990d5f1f85303171bb21d187bb.jpg [/ img] 

[B] Year [/ b]: 2010 
[B] Genre [/ b]: [b] Amateur, Homemade, Girlfriend, Boyfriend, Fotomodel, Model, Natali Akulich, Natasha Akulich, Natalie Akulich, Blowjob, Handjob, Oral, Cute, Petite, Blond, Blonde, Teen, Teenager , 18 +, Young, Couple, Russian, Belarusian, Home sex, GF, 18 year, college, reality, Small Tits, Skinny, Tiny, Slim, Thin, Fingering, Close-up, Innocent, schoolgirl, doggystyle, shaved, beauty , beautiful, Girl, Hardcore [/ b] 
[B] duration [/ b]: 00:47:59 

[B] Description [/ b]: CoverGirl from Belarus, [b] Nathalie Akulich [/ b] happy sex games with her boyfriend. 

[B] Video Quality: [/ b] HDCamRip 
[B] Video format: [/ b] mkv 

[B] Type HD video [/ b]: 720p 
[B] video quality [/ b]: BDRip 
[B] Video Format [/ b]: MKV 
[B] Video Codec [/ b]: H.264/AVC 
[B] Audio Codec [/ b]: AC3 
[B] video [/ b]: MPEG4 Video (H264) 1280x720 29.97fps 
[B] Audio [/ b]: Dolby AC3 48000Hz 6ch 

[Spoiler = "MediaInfo"] 
General 
Complete name: E: \ BadEIP \ Zaichik.mkv 
Format: Matroska 
File size: 1.53 GiB 
Duration: 47mn 59s 
Overall bit rate: 4560 Kbps 
Encoded date: UTC 2011-02-19 01:02:01 
Writing application: mkvmerge v4.4.0 ('Die Wiederkehr') built on Oct 31 2010 21:52:48 
Writing library: libebml v1.0.0 + libmatroska v1.0.0 

Video 
ID: 1 
Format: AVC 
Format / Info: Advanced Video Codec 
Format profile: High@L3.1 
Format settings, CABAC: Yes 
Format settings, ReFrames: 4 frames 
Format_Settings_GOP: M = 2, N = 16 
Muxing mode: Container profile = Unknown@3.1 
Codec ID: V_MPEG4/ISO/AVC 
Duration: 47mn 59s 
Bit rate: 4022 Kbps 
Nominal bit rate: 4111 Kbps 
Width: 1280 pixels 
Height: 720 pixels 
Display aspect ratio: 16:9 
Frame rate: 29.970 fps 
Resolution: 8 bits 
Colorimetry: 4:2:0 
Scan type: Progressive 
Bits / (Pixel * Frame): 0.146 
Stream size: 1.35 GiB (88%) 
Writing library: x264 core 112 r1867 22bfd31 
Encoding settings: cabac = 1 / ref = 3 / deblock = 1: -1: -1 / analyse = 0x3: 0x113 / me = hex / subme = 7 / psy = 1 / psy_rd = 1.00:0.00 / mixed_ref = 1 / me_range = 16 / chroma_me = 1 / trellis = 0 / 8x8dct = 1 / cqm = 0 / deadzone = 21,11 / fast_pskip = 1 / chroma_qp_offset =- 2 / threads = 12 / sliced_threads = 0 / nr = 0 / decimate = 1 / interlaced = 0 / constrained_intra = 0 / bframes = 3 / b_pyramid = 2 / b_adapt = 1 / b_bias = 0 / direct = 1 / weightb = 1 / open_gop = 0 / weightp = 2 / keyint = 250 / keyint_min = 25 / scenecut = 40 / intra_refresh = 0 / rc_lookahead = 40 / rc = 2pass / mbtree = 1 / bitrate = 4111 / ratetol = 1.0 / qcomp = 0.60 / qpmin = 10 / qpmax = 51 / qpstep = 4 / cplxblur = 20.0 / qblur = 0.5 / ip_ratio = 1.40 / aq = 1:1.00 

Audio 
ID: 2 
Format: AC-3 
Format / Info: Audio Coding 3 
Format_Settings_ModeExtension: CM (complete main) 
Codec ID: A_AC3 
Duration: 47mn 59s 
Bit rate mode: Constant 
Bit rate: 448 Kbps 
Channel (s): 6 channels 
Channel positions: Front: LCR, Side: LR, LFE 
Sampling rate: 48.0 KHz 
Stream size: 154 MiB (10%) 
[/ Spoiler] 

[Spoiler = "Screenshots"] 
[URL = http://fastpic.ru/view/14/2011/0222/1eaf3d5be44b7c98f1e1555c94d06d40.jpg.html] [IMG] http://i14.fastpic.ru/thumb/2011/0222/40/1eaf3d5be44b7c98f1e1555c94d06d40.jpeg [ / IMG] [/ URL] [URL = http://fastpic.ru/view/14/2011/0222/ab70587188eec1cc56a8157f4f8e38f5.jpg.html] [IMG] http://i14.fastpic.ru/thumb/2011/0222 / f5/ab70587188eec1cc56a8157f4f8e38f5.jpeg [/ IMG] [/ URL] 
[/ Spoiler]